# xmcd CD database file
#
# Track frame offsets:
#	150
#	44123
#	101039
#	134668
#	209466
#
# Disc length: 3771 seconds
#
# Revision: 0
# Processed by: cddbd v1.5.2PL0 Copyright (c) Steve Scherf et al.
# Submitted via: CDex 1.51
#
DISCID=500eb905
DTITLE=Aum Orchestra - Yoga Healing
DYEAR=2005
DGENRE=New Age
TTITLE0=Aum
TTITLE1=Dharbarai Part 1
TTITLE2=Khambaj
TTITLE3=Shibranjani
TTITLE4=Dharbarai Part 2
EXTD=YEAR: 2005
EXTT0=
EXTT1=
EXTT2=
EXTT3=
EXTT4=
PLAYORDER=
